<?xml version="1.0" encoding="UTF-8"?>
<svg id="Layer_1" xmlns="http://www.w3.org/2000/svg" version="1.1" viewBox="0 0 1554 622.21">
  <!-- Generator: Adobe Illustrator 30.3.0, SVG Export Plug-In . SVG Version: 2.1.3 Build 182)  -->
  <defs>
    <style>
      .st0 {
        stroke: #f9f8ef;
        stroke-miterlimit: 10;
        stroke-width: 12px;
      }

      .st1 {
        fill: #f2f2f2;
        stroke: #000;
        stroke-linecap: round;
        stroke-linejoin: round;
        stroke-width: 5px;
      }
    </style>
  </defs>
  <path class="st0" d="M1371.46,105.6H182.53c-7.95,0-14.42,6.47-14.42,14.42v122.83c0,.31.06.6.17.88-.1.27-.17.57-.17.88v257.58c0,7.95,6.47,14.42,14.42,14.42h919.43c7.95,0,14.42-6.47,14.42-14.42v-110.91c0-7.95-6.47-14.42-14.42-14.42h-389.84v-131.51h659.34c7.95,0,14.42-6.47,14.42-14.42v-110.91c0-7.95-6.47-14.42-14.42-14.42Z"/>
  <g>
    <path class="st1" d="M182.53,108.1h122.83v134.75h-134.75v-122.83c0-6.58,5.34-11.92,11.92-11.92Z"/>
    <rect class="st1" x="305.36" y="108.1" width="134.75" height="134.75"/>
    <rect class="st1" x="1113.88" y="108.1" width="134.75" height="134.75"/>
    <rect class="st1" x="305.36" y="379.36" width="134.75" height="134.75"/>
    <rect class="st1" x="440.12" y="108.1" width="134.75" height="134.75"/>
    <rect class="st1" x="979.13" y="108.1" width="134.75" height="134.75"/>
    <rect class="st1" x="574.87" y="108.1" width="134.75" height="134.75"/>
    <rect class="st1" x="709.62" y="108.1" width="134.75" height="134.75"/>
    <path class="st1" d="M979.13,379.36h122.83c6.58,0,11.92,5.34,11.92,11.92v110.91c0,6.58-5.34,11.92-11.92,11.92h-122.83v-134.75h0Z"/>
    <rect class="st1" x="844.37" y="108.1" width="134.75" height="134.75"/>
    <rect class="st1" x="170.61" y="244.61" width="134.75" height="134.75"/>
    <path class="st1" d="M170.61,379.36h134.75v134.75h-122.83c-6.58,0-11.92-5.34-11.92-11.92v-122.83h0Z"/>
    <rect class="st1" x="305.36" y="244.61" width="134.75" height="134.75"/>
    <rect class="st1" x="440.12" y="379.36" width="134.75" height="134.75"/>
    <rect class="st1" x="574.87" y="379.36" width="134.75" height="134.75"/>
    <rect class="st1" x="709.62" y="379.36" width="134.75" height="134.75"/>
    <rect class="st1" x="440.12" y="244.61" width="134.75" height="134.75"/>
    <rect class="st1" x="574.87" y="244.61" width="134.75" height="134.75"/>
    <path class="st1" d="M1248.63,108.1h122.83c6.58,0,11.92,5.34,11.92,11.92v110.91c0,6.58-5.34,11.92-11.92,11.92h-122.83V108.1h0Z"/>
    <rect class="st1" x="844.37" y="379.36" width="134.75" height="134.75"/>
  </g>
  <path d="M239.95,202.53c-4.38,0-8.34-.78-11.9-2.34-3.56-1.56-6.62-3.76-9.16-6.6-2.55-2.84-4.51-6.19-5.88-10.06-1.37-3.87-2.06-8.08-2.06-12.64s.67-8.64,2-12.48c1.33-3.84,3.27-7.19,5.8-10.06,2.53-2.87,5.6-5.1,9.2-6.7,3.6-1.6,7.65-2.4,12.16-2.4,3.52,0,6.71.46,9.56,1.38,2.85.92,5.31,2.19,7.36,3.82,2.32,1.84,4.17,4.04,5.54,6.58,1.37,2.55,2.26,5.33,2.66,8.34h-9.8c-.43-2.32-1.3-4.35-2.62-6.1s-3.06-3.12-5.22-4.12-4.69-1.5-7.6-1.5c-4.08,0-7.54,1.01-10.38,3.04-2.84,2.03-4.99,4.79-6.44,8.3-1.45,3.51-2.18,7.48-2.18,11.9s.79,8.62,2.36,12.1c1.57,3.48,3.79,6.2,6.66,8.16,2.87,1.96,6.22,2.94,10.06,2.94,3.39,0,6.21-.67,8.48-2.02s4.02-3.14,5.26-5.38c1.24-2.24,1.98-4.69,2.22-7.36h9.84c-.08,3.01-.76,6-2.04,8.94s-3.04,5.5-5.28,7.66c-2.27,2.27-4.95,3.93-8.06,5s-6.62,1.6-10.54,1.6Z"/>
  <path d="M348.06,201.33v-60.97h28.65c3.73,0,7.02.69,9.86,2.08s5.06,3.35,6.66,5.9c1.6,2.55,2.4,5.54,2.4,8.98,0,3.68-.85,6.82-2.56,9.4-1.71,2.59-4.58,4.51-8.6,5.76v.24c2.24.64,4.01,1.53,5.3,2.66,1.29,1.13,2.25,2.62,2.88,4.46.63,1.84,1.05,4.15,1.26,6.92.19,2.11.37,3.98.54,5.62.17,1.64.36,3.06.56,4.26.2,1.2.43,2.15.7,2.84.27.69.59,1.15.96,1.36v.48h-10.2c-.48-.37-.84-1.07-1.08-2.08-.24-1.01-.43-2.47-.56-4.36-.13-1.89-.33-4.33-.6-7.32-.27-3.97-1.33-6.81-3.18-8.52-1.85-1.71-4.69-2.56-8.5-2.56h-14.64v24.84h-9.84ZM357.9,168.8h16.12c3.84,0,6.73-.91,8.68-2.72,1.95-1.81,2.92-4.25,2.92-7.32,0-3.31-.87-5.83-2.62-7.56-1.75-1.73-4.61-2.6-8.58-2.6h-16.52v20.2Z"/>
  <path d="M1156.57,201.33v-60.97h28.65c3.73,0,7.02.69,9.86,2.08s5.06,3.35,6.66,5.9c1.6,2.55,2.4,5.54,2.4,8.98,0,3.68-.85,6.82-2.56,9.4-1.71,2.59-4.58,4.51-8.6,5.76v.24c2.24.64,4.01,1.53,5.3,2.66,1.29,1.13,2.25,2.62,2.88,4.46.63,1.84,1.05,4.15,1.26,6.92.19,2.11.37,3.98.54,5.62.17,1.64.36,3.06.56,4.26.2,1.2.43,2.15.7,2.84.27.69.59,1.15.96,1.36v.48h-10.2c-.48-.37-.84-1.07-1.08-2.08-.24-1.01-.43-2.47-.56-4.36-.13-1.89-.33-4.33-.6-7.32-.27-3.97-1.33-6.81-3.18-8.52-1.85-1.71-4.69-2.56-8.5-2.56h-14.64v24.84h-9.84ZM1166.41,168.8h16.12c3.84,0,6.73-.91,8.68-2.72,1.95-1.81,2.92-4.25,2.92-7.32,0-3.31-.87-5.83-2.62-7.56-1.75-1.73-4.61-2.6-8.58-2.6h-16.52v20.2Z"/>
  <path d="M348.06,472.58v-60.97h28.65c3.73,0,7.02.69,9.86,2.08s5.06,3.35,6.66,5.9c1.6,2.55,2.4,5.54,2.4,8.98,0,3.68-.85,6.82-2.56,9.4-1.71,2.59-4.58,4.51-8.6,5.76v.24c2.24.64,4.01,1.53,5.3,2.66,1.29,1.13,2.25,2.62,2.88,4.46.63,1.84,1.05,4.15,1.26,6.92.19,2.11.37,3.98.54,5.62.17,1.64.36,3.06.56,4.26.2,1.2.43,2.15.7,2.84.27.69.59,1.15.96,1.36v.48h-10.2c-.48-.37-.84-1.07-1.08-2.08-.24-1.01-.43-2.47-.56-4.36-.13-1.89-.33-4.33-.6-7.32-.27-3.97-1.33-6.81-3.18-8.52-1.85-1.71-4.69-2.56-8.5-2.56h-14.64v24.84h-9.84ZM357.9,440.06h16.12c3.84,0,6.73-.91,8.68-2.72,1.95-1.81,2.92-4.25,2.92-7.32,0-3.31-.87-5.83-2.62-7.56-1.75-1.73-4.61-2.6-8.58-2.6h-16.52v20.2Z"/>
  <path d="M510.37,202.53c-4.61,0-8.77-.79-12.46-2.36-3.69-1.57-6.84-3.79-9.44-6.64-2.6-2.85-4.59-6.2-5.96-10.04-1.37-3.84-2.06-8.04-2.06-12.6s.69-8.77,2.06-12.62c1.37-3.85,3.36-7.2,5.96-10.04,2.6-2.84,5.74-5.05,9.42-6.62,3.68-1.57,7.84-2.36,12.48-2.36s8.72.79,12.4,2.36c3.68,1.57,6.83,3.78,9.44,6.62,2.61,2.84,4.61,6.19,6,10.04s2.08,8.06,2.08,12.62-.69,8.76-2.08,12.6-3.39,7.19-6,10.04c-2.61,2.85-5.76,5.07-9.44,6.64-3.68,1.57-7.82,2.36-12.4,2.36ZM510.41,194.04c3.23,0,6.07-.58,8.54-1.74,2.47-1.16,4.53-2.79,6.18-4.88,1.65-2.09,2.9-4.55,3.74-7.36.84-2.81,1.26-5.87,1.26-9.18s-.42-6.42-1.26-9.26-2.09-5.31-3.74-7.42c-1.65-2.11-3.71-3.75-6.18-4.92-2.47-1.17-5.33-1.76-8.58-1.76s-6.08.59-8.56,1.76c-2.48,1.17-4.56,2.81-6.24,4.92-1.68,2.11-2.95,4.58-3.8,7.42s-1.28,5.92-1.28,9.22.43,6.38,1.28,9.2,2.12,5.29,3.8,7.38,3.76,3.72,6.24,4.88,5.35,1.74,8.6,1.74Z"/>
  <path d="M1049.38,202.53c-4.62,0-8.77-.79-12.46-2.36s-6.84-3.79-9.44-6.64c-2.6-2.85-4.59-6.2-5.96-10.04-1.38-3.84-2.06-8.04-2.06-12.6s.69-8.77,2.06-12.62c1.37-3.85,3.36-7.2,5.96-10.04,2.6-2.84,5.74-5.05,9.42-6.62,3.68-1.57,7.84-2.36,12.48-2.36s8.72.79,12.4,2.36c3.68,1.57,6.83,3.78,9.44,6.62,2.61,2.84,4.62,6.19,6,10.04s2.08,8.06,2.08,12.62-.69,8.76-2.08,12.6-3.39,7.19-6,10.04c-2.61,2.85-5.76,5.07-9.44,6.64s-7.81,2.36-12.4,2.36ZM1049.42,194.04c3.23,0,6.07-.58,8.54-1.74,2.47-1.16,4.53-2.79,6.18-4.88,1.65-2.09,2.9-4.55,3.74-7.36.84-2.81,1.26-5.87,1.26-9.18s-.42-6.42-1.26-9.26-2.09-5.31-3.74-7.42c-1.65-2.11-3.71-3.75-6.18-4.92-2.47-1.17-5.33-1.76-8.58-1.76s-6.08.59-8.56,1.76c-2.48,1.17-4.56,2.81-6.24,4.92-1.68,2.11-2.95,4.58-3.8,7.42s-1.28,5.92-1.28,9.22.43,6.38,1.28,9.2,2.12,5.29,3.8,7.38c1.68,2.09,3.76,3.72,6.24,4.88s5.35,1.74,8.6,1.74Z"/>
  <path d="M643.33,202.49c-5.63,0-10.36-.9-14.2-2.7-3.84-1.8-6.78-4.27-8.82-7.4s-3.17-6.7-3.38-10.7h9.8c.32,2.83,1.15,5.2,2.5,7.12,1.35,1.92,3.21,3.37,5.6,4.34s5.27,1.46,8.66,1.46c2.48,0,4.71-.35,6.68-1.06,1.97-.71,3.53-1.79,4.68-3.26,1.15-1.47,1.72-3.31,1.72-5.52,0-2.43-.69-4.32-2.06-5.68-1.37-1.36-3.32-2.43-5.84-3.22s-5.5-1.57-8.94-2.34c-2.75-.59-5.35-1.28-7.82-2.08-2.47-.8-4.64-1.83-6.52-3.08-1.88-1.25-3.36-2.87-4.44-4.84-1.08-1.97-1.62-4.45-1.62-7.44,0-3.63.93-6.69,2.8-9.18,1.87-2.49,4.43-4.39,7.7-5.68,3.27-1.29,7.04-1.94,11.3-1.94,3.65,0,6.87.42,9.64,1.26,2.77.84,5.12,2.06,7.04,3.66,1.92,1.6,3.43,3.5,4.54,5.68,1.11,2.19,1.83,4.64,2.18,7.36h-9.6c-.48-3.33-1.91-5.89-4.3-7.68-2.39-1.79-5.57-2.68-9.54-2.68-3.68,0-6.65.74-8.9,2.22s-3.38,3.59-3.38,6.34c0,2.03.65,3.63,1.96,4.82,1.31,1.19,3.13,2.13,5.46,2.84,2.33.71,5.05,1.39,8.14,2.06,2.91.61,5.68,1.33,8.32,2.14s5,1.89,7.08,3.24,3.72,3.11,4.92,5.3c1.2,2.19,1.8,4.96,1.8,8.32,0,3.92-1,7.25-3,9.98-2,2.73-4.75,4.81-8.24,6.22-3.5,1.41-7.47,2.12-11.92,2.12Z"/>
  <path d="M778.08,202.49c-5.63,0-10.36-.9-14.2-2.7-3.84-1.8-6.78-4.27-8.82-7.4s-3.17-6.7-3.38-10.7h9.8c.32,2.83,1.15,5.2,2.5,7.12,1.35,1.92,3.21,3.37,5.6,4.34s5.27,1.46,8.66,1.46c2.48,0,4.71-.35,6.68-1.06,1.97-.71,3.53-1.79,4.68-3.26,1.15-1.47,1.72-3.31,1.72-5.52,0-2.43-.69-4.32-2.06-5.68-1.37-1.36-3.32-2.43-5.84-3.22s-5.5-1.57-8.94-2.34c-2.75-.59-5.35-1.28-7.82-2.08-2.47-.8-4.64-1.83-6.52-3.08-1.88-1.25-3.36-2.87-4.44-4.84-1.08-1.97-1.62-4.45-1.62-7.44,0-3.63.93-6.69,2.8-9.18,1.87-2.49,4.43-4.39,7.7-5.68,3.27-1.29,7.04-1.94,11.3-1.94,3.65,0,6.87.42,9.64,1.26,2.77.84,5.12,2.06,7.04,3.66,1.92,1.6,3.43,3.5,4.54,5.68,1.11,2.19,1.83,4.64,2.18,7.36h-9.6c-.48-3.33-1.91-5.89-4.3-7.68-2.39-1.79-5.57-2.68-9.54-2.68-3.68,0-6.65.74-8.9,2.22s-3.38,3.59-3.38,6.34c0,2.03.65,3.63,1.96,4.82,1.31,1.19,3.13,2.13,5.46,2.84,2.33.71,5.05,1.39,8.14,2.06,2.91.61,5.68,1.33,8.32,2.14s5,1.89,7.08,3.24,3.72,3.11,4.92,5.3c1.2,2.19,1.8,4.96,1.8,8.32,0,3.92-1,7.25-3,9.98-2,2.73-4.75,4.81-8.24,6.22-3.5,1.41-7.47,2.12-11.92,2.12Z"/>
  <path d="M1047.58,473.74c-5.63,0-10.36-.9-14.2-2.7-3.84-1.8-6.78-4.27-8.82-7.4s-3.17-6.7-3.38-10.7h9.8c.32,2.83,1.15,5.2,2.5,7.12,1.35,1.92,3.21,3.37,5.6,4.34s5.27,1.46,8.66,1.46c2.48,0,4.71-.35,6.68-1.06,1.97-.71,3.53-1.79,4.68-3.26,1.15-1.47,1.72-3.31,1.72-5.52,0-2.43-.69-4.32-2.06-5.68-1.37-1.36-3.32-2.43-5.84-3.22s-5.5-1.57-8.94-2.34c-2.75-.59-5.35-1.28-7.82-2.08-2.47-.8-4.64-1.83-6.52-3.08-1.88-1.25-3.36-2.87-4.44-4.84-1.08-1.97-1.62-4.45-1.62-7.44,0-3.63.93-6.69,2.8-9.18,1.87-2.49,4.43-4.39,7.7-5.68,3.27-1.29,7.04-1.94,11.3-1.94,3.65,0,6.87.42,9.64,1.26,2.77.84,5.12,2.06,7.04,3.66,1.92,1.6,3.43,3.5,4.54,5.68,1.11,2.19,1.83,4.64,2.18,7.36h-9.6c-.48-3.33-1.91-5.89-4.3-7.68-2.39-1.79-5.57-2.68-9.54-2.68-3.68,0-6.65.74-8.9,2.22s-3.38,3.59-3.38,6.34c0,2.03.65,3.63,1.96,4.82,1.31,1.19,3.13,2.13,5.46,2.84,2.33.71,5.05,1.39,8.14,2.06,2.91.61,5.68,1.33,8.32,2.14s5,1.89,7.08,3.24,3.72,3.11,4.92,5.3c1.2,2.19,1.8,4.96,1.8,8.32,0,3.92-1,7.25-3,9.98-2,2.73-4.75,4.81-8.24,6.22-3.5,1.41-7.47,2.12-11.92,2.12Z"/>
  <path d="M889.16,201.33l-16.04-60.97h10.2l7.96,32.69c.43,1.68.83,3.55,1.2,5.62.37,2.07.69,4.05.96,5.94.27,1.89.57,4.05.92,6.48h.16c.37-2.48.73-4.68,1.06-6.6.33-1.92.71-3.92,1.12-6,.41-2.08.83-3.95,1.26-5.6l8.64-32.53h10l8.4,32.49c.4,1.68.8,3.55,1.2,5.62s.77,4.07,1.1,6,.69,4.14,1.06,6.62h.16c.37-2.43.71-4.59,1.02-6.48.31-1.89.65-3.88,1.04-5.96.38-2.08.79-3.95,1.22-5.6l8.16-32.69h10.08l-16.88,60.97h-9.56l-8.92-35.45c-.37-1.49-.74-3.19-1.1-5.1s-.69-3.75-.98-5.54-.6-3.83-.92-6.12h-.16c-.37,2.29-.71,4.33-1,6.12-.29,1.79-.62,3.63-.98,5.52-.36,1.89-.74,3.57-1.14,5.04l-9.44,35.53h-9.8Z"/>
  <path d="M215.4,337.83l-16.04-60.97h10.2l7.96,32.69c.43,1.68.83,3.55,1.2,5.62.37,2.07.69,4.05.96,5.94.27,1.89.57,4.05.92,6.48h.16c.37-2.48.73-4.68,1.06-6.6.33-1.92.71-3.92,1.12-6,.41-2.08.83-3.95,1.26-5.6l8.64-32.53h10l8.4,32.49c.4,1.68.8,3.55,1.2,5.62s.77,4.07,1.1,6c.33,1.93.69,4.14,1.06,6.62h.16c.37-2.43.71-4.59,1.02-6.48.31-1.89.65-3.88,1.04-5.96.39-2.08.79-3.95,1.22-5.6l8.16-32.69h10.08l-16.88,60.97h-9.56l-8.92-35.45c-.37-1.49-.74-3.19-1.1-5.1-.36-1.91-.69-3.75-.98-5.54-.29-1.79-.6-3.83-.92-6.12h-.16c-.37,2.29-.71,4.33-1,6.12s-.62,3.63-.98,5.52c-.36,1.89-.74,3.57-1.14,5.04l-9.44,35.53h-9.8Z"/>
  <path d="M218.3,472.58v-60.97h42.49v8.6h-32.65v16.92h27.25v8.24h-27.25v27.21h-9.84Z"/>
  <path d="M367.8,337.83v-60.97h9.88v60.97h-9.88Z"/>
  <path d="M502.55,472.58v-60.97h9.88v60.97h-9.88Z"/>
  <path d="M620.92,472.58v-60.97h43.97v8.52h-34.13v16.76h30.53v8.04h-30.53v18.88h34.97v8.76h-44.81Z"/>
  <path d="M752.51,472.58v-60.97h10.24l22.6,35.09c.8,1.23,1.61,2.59,2.44,4.1.83,1.51,1.6,2.95,2.32,4.32.72,1.37,1.53,2.96,2.44,4.74h.24c-.13-1.89-.23-3.58-.3-5.06-.07-1.48-.14-3.04-.22-4.68-.08-1.64-.12-3.15-.12-4.54v-33.97h9.36v60.97h-10.2l-22.52-34.97c-.8-1.25-1.63-2.64-2.48-4.16s-1.65-2.97-2.38-4.34c-.73-1.37-1.57-2.94-2.5-4.7h-.16c.13,1.89.23,3.57.28,5.04.05,1.47.11,3.02.18,4.66s.1,3.14.1,4.5v33.97h-9.32Z"/>
  <path d="M502.47,337.83v-52.37h-19.48v-8.6h49.01v8.6h-19.6v52.37h-9.92Z"/>
  <path d="M617.76,337.83v-60.97h9.84v25.08h29.25v-25.08h9.88v60.97h-9.88v-27.81h-29.25v27.81h-9.84Z"/>
  <path d="M1291.88,201.33v-60.97h23.29c4.51,0,8.47.73,11.88,2.2s6.27,3.56,8.58,6.28c2.31,2.72,4.05,5.97,5.22,9.74,1.17,3.78,1.76,7.96,1.76,12.54s-.6,8.7-1.8,12.4c-1.2,3.71-2.98,6.88-5.34,9.52-2.36,2.64-5.29,4.68-8.78,6.12-3.5,1.44-7.54,2.16-12.12,2.16h-22.69ZM1301.8,192.84h12.2c4.32,0,7.83-.88,10.54-2.64,2.71-1.76,4.7-4.27,5.98-7.52,1.28-3.25,1.92-7.11,1.92-11.56s-.6-8.35-1.8-11.68c-1.2-3.33-3.13-5.93-5.78-7.78-2.65-1.85-6.13-2.78-10.42-2.78h-12.64v43.97Z"/>
  <path d="M887.62,472.58v-60.97h23.29c4.51,0,8.47.73,11.88,2.2s6.28,3.56,8.58,6.28,4.05,5.97,5.22,9.74c1.17,3.78,1.76,7.96,1.76,12.54s-.6,8.7-1.8,12.4c-1.2,3.71-2.98,6.88-5.34,9.52-2.36,2.64-5.29,4.68-8.78,6.12s-7.54,2.16-12.12,2.16h-22.68ZM897.55,464.1h12.2c4.32,0,7.83-.88,10.54-2.64,2.71-1.76,4.7-4.27,5.98-7.52,1.28-3.25,1.92-7.11,1.92-11.56s-.6-8.35-1.8-11.68c-1.2-3.33-3.13-5.93-5.78-7.78-2.65-1.85-6.13-2.78-10.42-2.78h-12.64v43.97Z"/>
  <path d="M188.07,146.57v-19.09h-6.37v-2.94c1.21-.03,2.33-.22,3.38-.57,1.05-.36,1.92-.93,2.63-1.72.7-.79,1.15-1.84,1.34-3.15h3.45v27.47h-4.43Z"/>
  <path d="M597.11,148.4c-2.09,0-3.95-.36-5.58-1.08-1.63-.72-2.91-1.78-3.84-3.17-.94-1.39-1.42-3.07-1.44-5.04h4.15c.04,1.2.31,2.24.83,3.11.52.87,1.26,1.55,2.23,2.03.97.48,2.13.72,3.5.72,1.12,0,2.12-.19,2.97-.57.86-.38,1.52-.94,1.99-1.68.47-.74.71-1.67.71-2.78,0-1.02-.24-1.87-.72-2.55-.48-.69-1.19-1.2-2.13-1.56s-2.08-.53-3.42-.53h-1.67v-3.19h1.62c1.22,0,2.25-.16,3.08-.49s1.46-.79,1.89-1.41c.43-.62.64-1.36.64-2.23s-.23-1.59-.68-2.21c-.45-.62-1.06-1.09-1.83-1.43s-1.65-.5-2.62-.5c-1.19,0-2.19.24-3.02.71-.83.47-1.46,1.1-1.89,1.89-.43.79-.66,1.68-.69,2.67h-4.09c.02-1.65.43-3.12,1.21-4.4.78-1.28,1.9-2.3,3.35-3.04,1.45-.74,3.2-1.11,5.24-1.11,1.74,0,3.3.29,4.7.88,1.39.59,2.5,1.43,3.3,2.53.81,1.1,1.21,2.42,1.21,3.96,0,1.46-.41,2.62-1.23,3.5s-1.9,1.55-3.23,2v.09c1.81.49,3.16,1.3,4.04,2.44.88,1.14,1.32,2.58,1.32,4.31,0,1.32-.25,2.49-.76,3.5-.51,1.02-1.21,1.87-2.12,2.56-.91.69-1.96,1.21-3.16,1.55-1.2.34-2.48.51-3.85.51Z"/>
</svg>